<?xml version="1.0" encoding="UTF-8"?>
<!DOCTYPE svg PUBLIC "-//W3C//DTD SVG 1.1//EN" "http://www.w3.org/Graphics/SVG/1.1/DTD/svg11.dtd">
<!-- Creator: CorelDRAW -->
<svg xmlns="http://www.w3.org/2000/svg" xml:space="preserve" width="5.3381mm" height="5.7826mm" version="1.1" style="shape-rendering:geometricPrecision; text-rendering:geometricPrecision; image-rendering:optimizeQuality; fill-rule:evenodd; clip-rule:evenodd"
viewBox="0 0 198.99 215.56"
 xmlns:xlink="http://www.w3.org/1999/xlink"
 xmlns:xodm="http://www.corel.com/coreldraw/odm/2003">
 <defs>
  <style type="text/css">
   <![CDATA[
    .fil0 {fill:#999999;fill-rule:nonzero}
   ]]>
  </style>
 </defs>
 <g id="Layer_x0020_1">
  <metadata id="CorelCorpID_0Corel-Layer"/>
  <path class="fil0" d="M99.49 0c18.08,0 34.45,7.33 46.3,19.18 11.84,11.85 19.17,28.22 19.17,46.3 0,18.06 -7.33,34.42 -19.17,46.27l-0.03 0.03c-3.85,3.85 -8.18,7.22 -12.89,10.02 14.05,5.01 26.64,13.07 36.98,23.4 18.01,18 29.14,42.88 29.14,70.35l0 0.01 -14.89 0 0 -0.01c0,-23.36 -9.47,-44.52 -24.78,-59.83 -15.16,-15.16 -36.06,-24.6 -59.17,-24.78l-0.66 0 -0.66 -0c-23.1,0.18 -44,9.61 -59.17,24.78 -15.31,15.31 -24.78,36.47 -24.78,59.83l0 0.01 -14.89 0 0 -0.01c0,-27.47 11.13,-52.35 29.14,-70.35 10.33,-10.33 22.93,-18.4 36.98,-23.4 -4.71,-2.8 -9.04,-6.17 -12.89,-10.02l-0.03 -0.03c-11.84,-11.85 -19.18,-28.21 -19.18,-46.27 0,-18.08 7.33,-34.45 19.18,-46.3 11.85,-11.85 28.22,-19.18 46.3,-19.18zm35.78 29.7c-9.15,-9.15 -21.8,-14.82 -35.78,-14.82 -13.97,0 -26.62,5.67 -35.78,14.82 -9.15,9.15 -14.81,21.8 -14.81,35.77 0,13.98 5.66,26.64 14.8,35.79 9.15,9.14 21.81,14.8 35.79,14.8 13.98,0 26.64,-5.66 35.79,-14.8 9.14,-9.15 14.8,-21.81 14.8,-35.79 0,-13.97 -5.66,-26.62 -14.82,-35.77zm-35.78 86.36l0 0 0 -0z"/>
 </g>
</svg>
