<?xml version="1.0" encoding="UTF-8"?>
<!DOCTYPE svg PUBLIC "-//W3C//DTD SVG 1.1//EN" "http://www.w3.org/Graphics/SVG/1.1/DTD/svg11.dtd">
<!-- Creator: CorelDRAW -->
<svg xmlns="http://www.w3.org/2000/svg" xml:space="preserve" width="6.1864mm" height="5.8976mm" version="1.1" style="shape-rendering:geometricPrecision; text-rendering:geometricPrecision; image-rendering:optimizeQuality; fill-rule:evenodd; clip-rule:evenodd"
viewBox="0 0 128.27 122.28"
 xmlns:xlink="http://www.w3.org/1999/xlink"
 xmlns:xodm="http://www.corel.com/coreldraw/odm/2003">
 <defs>
  <style type="text/css">
   <![CDATA[
    .str0 {stroke:#999999;stroke-width:7.32;stroke-miterlimit:22.9256}
    .fil0 {fill:none}
   ]]>
  </style>
 </defs>
 <g id="Layer_x0020_1">
  <metadata id="CorelCorpID_0Corel-Layer"/>
  <path class="fil0 str0" d="M89.99 60.86c-0.84,1.38 -0.23,0.62 -1.3,1.66l-16.84 16.91c-0.07,0.06 -0.16,0.15 -0.23,0.21l-2.84 2.86c-0.06,0.06 -0.16,0.15 -0.22,0.21l-4.86 4.34 -3.97 -3.92c-0.07,-0.06 -0.16,-0.15 -0.23,-0.21l-22.1 -22.54c2.47,-0.14 4.98,-0.08 7.46,-0.06 0.61,0.01 3.11,0.08 3.52,-0.01 0.95,-0.2 0.63,0.28 1.1,-0.65 0.73,-1.41 -0.24,-1.59 -0.25,-1.6l0 -51.21c-1.95,1.31 -33.01,32.79 -36.26,36.05 -3.95,3.95 -9.31,7.54 -9.31,15.14 0.16,7.55 6.99,13 12.16,18.17l37.69 37.69c2.73,2.77 5.25,4.73 10.62,4.73 5.79,0 7.52,-1.47 10.36,-4.56l3.07 -3.06c0.06,-0.07 0.15,-0.17 0.21,-0.23l15.32 -15.35c0.06,-0.06 0.15,-0.16 0.22,-0.22l26.09 -26.07c2.65,-2.63 5.22,-6.01 5.22,-11.04 0,-6.91 -3.95,-10.26 -8.65,-14.97l-30.02 -30.02c-1.41,-1.41 -4.79,-5.36 -6.46,-5.81l0 4.38c-1.07,1.67 -0.44,47.6 -0.44,49.08l10.96 0.1z"/>
 </g>
</svg>
