<?xml version="1.0" encoding="UTF-8"?>
<!DOCTYPE svg PUBLIC "-//W3C//DTD SVG 1.1//EN" "http://www.w3.org/Graphics/SVG/1.1/DTD/svg11.dtd">
<!-- Creator: CorelDRAW -->
<svg xmlns="http://www.w3.org/2000/svg" xml:space="preserve" width="7.1609mm" height="7.0197mm" version="1.1" style="shape-rendering:geometricPrecision; text-rendering:geometricPrecision; image-rendering:optimizeQuality; fill-rule:evenodd; clip-rule:evenodd"
viewBox="0 0 67.52 66.19"
 xmlns:xlink="http://www.w3.org/1999/xlink"
 xmlns:xodm="http://www.corel.com/coreldraw/odm/2003">
 <defs>
  <style type="text/css">
   <![CDATA[
    .fil0 {fill:#FFA60D}
   ]]>
  </style>
 </defs>
 <g id="Layer_x0020_1">
  <metadata id="CorelCorpID_0Corel-Layer"/>
  <path class="fil0" d="M22.92 60.11l0 -1.35 26.02 0 -0.34 3.04c-2.78,0.65 -22.56,0.65 -25.34,0 -0.18,-0.76 -0.34,-0.78 -0.34,-1.69zm44.6 -28.02l0 0.96c-0.15,5.35 -2.69,11.2 -4.74,14.55 -1.68,2.74 -7.1,9.01 -10.12,9.81 0,3.9 0.32,8.78 -6.42,8.78l-21.29 0c-5.29,0 -6.08,-4.34 -6.08,-8.78 -7.72,-5.17 -14.53,-14.22 -14.53,-24.66 0,-4.59 -0.02,-3.72 6.08,-3.72 -0.89,-1.33 -3.37,-2.52 -4.66,-3.79 -1.53,-1.51 -2.1,-3 -2.1,-6.01 -3.36,1.61 -5.1,-2.76 -1.01,-3.72 -0.84,-3.15 -3.52,-0.43 -2.36,-5.41 4.19,-0.98 2.49,1 5.07,1.69 0.27,-1.15 0.67,-2.7 2.03,-2.7 2.33,0 2.03,2.06 2.03,3.38 1.84,-0.04 1.29,-0.44 3.08,-0.06 3.52,0.74 4.16,2.85 6.05,4.12 2.51,-3.75 2.93,-1.92 3.73,-4.72 1.69,-5.93 4.52,-4.91 5.86,-6.98 0.66,-1.03 0.78,-1.56 1.64,-2.42 3.22,-3.22 8.43,-3.15 11.81,-0.13 2.01,1.79 2.18,4.13 2.63,5.48 0.51,1.52 2.36,2.53 2.93,5.18 0.28,1.32 -0.05,2.67 0.16,3.89 0.14,0.84 0.9,1.96 1.32,2.74 1.41,-0.12 2.58,-0.68 4.05,-0.68 5.25,0 11.37,4.72 11.83,10.14 1.59,0 1.51,0.06 2.7,0.34 0.2,0.88 0.31,1.79 0.34,2.72zm-59.47 0.66l55.41 0c0,5.35 -2.3,10.15 -4.45,13.45 -1.34,2.05 -7.03,8.51 -9.74,8.51l-26.69 0c-1.87,0 -4.28,-2.56 -5.56,-3.57 -1.31,-1.03 -3.3,-3.54 -4.25,-4.88 -1.05,-1.48 -2.36,-4.21 -3.04,-6.08 -1.26,-3.44 -1.27,-6.56 -1.69,-7.44zm44.26 -9.8c4.16,0 7.33,2.73 8.11,6.08l-15.88 0c0.89,-1.85 0.97,-2.79 2.64,-4.12 1.1,-0.88 3.25,-1.96 5.13,-1.96zm-44.6 -2.7c0,-2.01 0.77,-4.05 3.38,-4.05 2.4,0 5.99,4.47 7.52,6 1.71,1.71 5.54,5.14 6.67,6.84 -9.45,0 -6.61,1.4 -16.43,-6.55 -0.75,-0.61 -1.14,-1.02 -1.14,-2.24zm25 -6.08l-0.3 -0.38c-1.6,-1.65 -3.76,-1.29 -3.76,1.39 0,2.26 3.82,2.29 2.7,7.1 -1.99,-1.34 -1.58,-3.72 -4.39,-3.72 -0.97,0 -1.56,1.04 -1.6,1.72 -0.11,1.69 3.46,4.82 3.97,6.72l-7.85 -7.69c0.67,-1.2 0.79,-1.51 1.9,-2.32 0.39,-0.28 0.99,-0.59 1.25,-0.77 2.23,-1.52 0.46,-2.03 2.08,-5.01 0.95,-1.74 1.32,-1.46 3.17,-2.24 2.79,-1.18 0.97,-4.94 6.21,-4.94 4.43,0 3.87,5.45 4.47,6.35 0.71,1.06 1.94,1.35 2.49,2.93 0.85,2.44 -0.2,2.63 -0.2,4.58 0,1.44 1.63,2.53 2.36,3.38 -1.45,2.17 -3.49,2.45 -4.73,7.77 -2.71,0 -3.57,0.38 -4.73,-1.35 1.14,-0.3 2.43,-1.49 3.52,-2.23 0.56,-0.38 1.18,-0.8 1.57,-1.13 2.14,-1.79 0.65,-5.53 -3.26,-2.59 -0.85,0.64 -1.35,1.01 -2.16,1.55 0,-4.77 5.41,-4.7 5.41,-6.76 0,-3.98 -4.05,-1.69 -4.05,-1.69 0.06,-2.54 0.78,-1.38 0,-4.73 -3.83,-0.89 -3.09,-0.07 -4.05,4.05z"/>
 </g>
</svg>
