<?xml version="1.0" encoding="UTF-8"?>
<!DOCTYPE svg PUBLIC "-//W3C//DTD SVG 1.1//EN" "http://www.w3.org/Graphics/SVG/1.1/DTD/svg11.dtd">
<!-- Creator: CorelDRAW -->
<svg xmlns="http://www.w3.org/2000/svg" xml:space="preserve" width="5.7018mm" height="6.2966mm" version="1.1" style="shape-rendering:geometricPrecision; text-rendering:geometricPrecision; image-rendering:optimizeQuality; fill-rule:evenodd; clip-rule:evenodd"
viewBox="0 0 56.9 62.84"
 xmlns:xlink="http://www.w3.org/1999/xlink"
 xmlns:xodm="http://www.corel.com/coreldraw/odm/2003">
 <defs>
  <style type="text/css">
   <![CDATA[
    .fil0 {fill:#999999}
   ]]>
  </style>
 </defs>
 <g id="Layer_x0020_1">
  <metadata id="CorelCorpID_0Corel-Layer"/>
  <path class="fil0" d="M32.3 55.55c0.13,1.03 -1.05,2.27 -1.51,2.62 -0.37,0.28 -0.85,0.58 -1.39,0.68 -0.44,0.08 -1.5,0.21 -1.84,-0.04 -0.42,0.03 -1.18,-0.45 -1.46,-0.67 -0.44,-0.34 -0.66,-0.65 -1,-1.12 -0.27,-0.51 -0.62,-1.28 -0.58,-2l7.9 0.01c0.01,0.14 0.02,0.12 -0.01,0.27 -0.02,0.11 -0.02,0.07 -0.05,0.15l-0.05 0.09zm-28.02 -7.3c0.05,-0.66 1.57,-1.68 2.37,-2.33 0.05,-0.04 0.15,-0.13 0.2,-0.16 0.13,-0.08 0.06,-0.05 0.16,-0.08 0.07,-0.18 -0.01,-0.11 0.2,-0.18 0.03,-0.09 -0.01,-0.01 0.07,-0.11l1.15 -1.15c0.11,-0.2 0.06,-0.12 0.21,-0.22 0.04,-0.2 0.04,-0.14 0.2,-0.33 0.67,-0.82 1.26,-2.15 1.46,-2.34 0.13,-0.49 0.42,-1.04 0.63,-1.57 0.16,-0.41 0.31,-1.24 0.56,-1.52 -0,-0.2 0.2,-1.01 0.31,-1.16 0.07,-0.39 0.25,-1.42 0.47,-1.7 -0.02,-0.37 0.12,-0.95 0.21,-1.22 0.05,-0.51 0.15,-1 0.23,-1.53l0.26 -1.49c-0.08,-0.31 0.03,-0.95 0.1,-1.22 0.03,-0.46 0.12,-1.64 0.34,-1.94 -0.02,-0.29 0.04,-0.61 0.12,-0.87 0.08,-0.61 0.44,-2.91 0.73,-3.26 -0.02,-0.34 0.12,-0.84 0.22,-1.06 0.05,-0.32 0.29,-1.34 0.49,-1.6 -0.02,-0.47 0.86,-2.44 1.12,-2.64 0.31,-1.08 2.2,-3.1 3.26,-3.91 0.4,-0.3 0.3,-0.33 0.63,-0.37 0.14,-0.29 1.2,-0.81 1.45,-0.9 0.15,-0.18 0.99,-0.54 1.29,-0.54 0.38,-0.37 2.65,-0.82 3.06,-0.87 0.27,-0.07 0.7,-0.13 0.99,-0.06 0.17,-0.1 0.04,-0.05 0.29,-0.08l3.89 0.08c0.06,0.01 0.19,0.02 0.25,0.04l0.24 0.1c0.36,-0.07 0.99,0.12 1.31,0.24 0.63,0.12 1.71,0.53 2.3,0.81 0.26,0.12 0.48,0.19 0.65,0.38 0.26,0.02 1.04,0.5 1.17,0.67 0.25,0.1 0.24,0.07 0.37,0.27 0.31,0.06 0.83,0.57 1.09,0.81 0.38,0.35 0.61,0.58 0.96,0.97 0.28,0.3 1.49,1.8 1.51,2.22l0.15 0.17c0.34,0.48 1.04,2.29 1.16,2.84 0.15,0.2 0.35,1.02 0.32,1.28l0.09 0.13c0.01,0.01 0.02,0.03 0.02,0.05 0.01,0.03 0.04,0.13 0.05,0.17l0.26 1.1c0.12,0.51 0.25,1.01 0.32,1.54 0.1,0.35 0.23,0.84 0.19,1.21 0.11,0.16 0.02,-0.03 0.09,0.2 0,0.01 0.04,0.21 0.05,0.24l0.22 1.41c0.06,0.28 0.15,0.64 0.07,0.89 0.17,0.26 0.27,1.53 0.3,1.82l0.04 0.6c0.14,0.19 0.48,2.87 0.65,3.45l0.35 1.48 0.48 1.6c0.03,0.03 0.94,2.51 0.94,2.58 0.25,0.22 0.54,0.94 0.71,1.23 0.57,0.97 0.94,1.38 1.66,2.19l0.86 0.85c0.12,0.18 0,-0.11 0.06,0.15l0.33 0.17c2,1.59 2.74,1.88 2.91,4.22l-0.03 0.11c0.12,0.19 0.08,0.7 0.04,1l-49.21 -0.01c-0.06,-0.4 0.08,-2.48 0.43,-2.86zm22.24 -42.49c0.03,-0.33 0.07,-0.51 0.19,-0.76 0.04,-0.08 0.13,-0.23 0.16,-0.27 0.13,-0.15 0.1,-0.1 0.21,-0.17 0.04,-0.09 -0,-0.02 0.07,-0.12l0.35 -0.28c0.75,-0.41 1.28,-0.24 1.93,0 0.24,0.16 0.42,0.31 0.55,0.56 0.03,0.02 0.03,-0 0.12,0.11 0.04,0.06 0.08,0.14 0.1,0.18 0.12,0.24 0.1,0.17 0.09,0.39 0.11,0.14 0.13,0.19 0.13,0.49 0,0.35 -0.13,0.87 -0.37,1.09 -0.13,0.11 -0.02,0.05 -0.19,0.1 -0.04,0.24 0.09,0.01 -0.11,0.24l-0.6 0.39c-0.3,0.13 -0.92,0.21 -1.16,-0 -0.31,-0 -0.63,-0.2 -0.81,-0.44l-0.04 -0.08c-0.26,-0.14 -0.12,0.02 -0.24,-0.28 -0.29,-0.21 -0.4,-0.81 -0.39,-1.17zm1.02 -5.7c-0.29,0.07 -0.63,0.14 -0.9,0.24 -0.3,0.11 -0.53,0.26 -0.82,0.29 -0.19,0.26 -1.15,0.65 -1.98,1.68 -0.17,0.22 -0.31,0.52 -0.54,0.69l-0.38 0.94c-0.04,0.24 -0.05,0.39 -0.19,0.55l-0.12 1.02 0.09 1.68 0.03 0.26c0.14,0.15 0.13,0.23 0.22,0.5 0.07,0.21 0.11,0.3 0.12,0.58l-1.8 0.62c-0.12,0.12 -0.95,0.46 -1.14,0.47 -0.18,0.2 -0.98,0.55 -1.25,0.71 -1.39,0.77 -3.16,2.31 -3.29,2.37 -0.03,0.1 0.04,0.07 -0.12,0.11 -0.15,0.3 -0.41,0.49 -0.63,0.74 -0.1,0.11 -0.19,0.21 -0.3,0.34l-0.35 0.34 0.02 -0.02c-0.2,0.43 -0.71,0.99 -1.01,1.48l-0.79 1.35c-0.11,0.16 -0.04,0.08 -0.15,0.17 -0,0.06 -0.97,2.49 -1.03,2.58 -0.08,0.37 -0.44,1.81 -0.62,2.01 0.01,0.3 -0.14,0.82 -0.21,0.99 -0.08,0.47 -0.54,2.94 -0.71,3.14 0.02,0.31 -0.06,0.82 -0.16,1.09 -0.04,0.36 -0.19,1.69 -0.34,1.9 0.03,0.31 -0.03,0.66 -0.1,0.95 -0.02,0.27 -0.16,1.71 -0.31,1.93 0.07,0.39 -0.21,1.84 -0.35,2.27l-0.33 1.53c-0.08,0.18 -0.01,0.05 -0.09,0.15 0.06,0.3 -0.12,0.89 -0.28,1.17 -0.14,0.7 -0.58,1.77 -0.89,2.46 -0.12,0.25 -0.21,0.51 -0.41,0.7 -0.01,0.26 -0.46,0.95 -0.63,1.05 -0.07,0.17 -0.01,0.06 -0.09,0.18 -0.08,0.12 -0.03,0.04 -0.14,0.12 -0.06,0.25 -0.36,0.51 -0.55,0.69 -0.21,0.2 -0.42,0.44 -0.66,0.53l-0.22 0.21c-0.04,0.09 0.02,0.01 -0.1,0.13l-0.46 0.39c-0.19,0.16 -0.38,0.37 -0.6,0.42l-0.39 0.38c-0.12,0.08 0.02,0 -0.15,0.09 -0.03,0.07 0,0.03 -0.11,0.14l-0.8 0.72c-0.09,0.2 -0.27,0.47 -0.47,0.59 -0.04,0.39 -0.46,0.85 -0.57,1.34 -0.42,1.09 -0.53,2.51 -0.5,3.8 0.02,0.66 0.08,1.32 0.25,1.92 0.21,0.74 0.44,0.93 0.71,1.43 0.16,0.03 0.02,-0.03 0.22,0.14 0.04,0.04 0.07,0.06 0.1,0.1 0.09,0.09 0.07,0.07 0.08,0.09 0.37,0.15 0.43,0.27 0.88,0.33l0.79 0.06c0.57,0.09 -0.44,-0.1 0.13,0.03l0.12 0.04c0.24,-0.09 0.59,-0.05 0.89,-0.04 2.78,0.02 5.56,0.03 8.34,0.05l7.7 0c0.32,0.02 0.29,-0.06 0.36,0.19l-0.02 0.2 0.38 1.8c0.11,0.19 0.34,0.87 0.33,1.05 0.06,0.06 0.06,0.03 0.12,0.14 0.09,0.14 0.02,0.05 0.07,0.2 0.05,0.04 0.63,0.98 0.66,1.09l0.8 0.92c0.14,0.05 0.06,0 0.2,0.12 0.06,0.05 0.08,0.08 0.15,0.14 0.15,0.13 0.2,0.1 0.23,0.26l0.8 0.6c0.2,0.02 0.11,0 0.32,0.13 0.99,0.57 1.22,0.54 2.23,0.9 0.91,0.09 1.76,0.09 2.69,0.05l0.21 0.05 1.59 -0.51c0.51,-0.21 1.05,-0.59 1.46,-0.72 0.07,-0.11 0.06,-0.09 0.2,-0.19 0.01,-0.01 0.11,-0.07 0.13,-0.08 0.15,-0.08 -0.04,-0.01 0.14,-0.05l0.97 -0.87c0.07,-0.17 0.26,-0.45 0.46,-0.55 0.17,-0.42 0.62,-0.99 0.89,-1.57 0.15,-0.32 0.54,-1.68 0.64,-1.79l0.1 -0.89 0.1 -0.61c5.9,-0.06 11.91,0.1 17.79,-0.11 0.56,-0.04 0.89,-0.21 1.21,-0.25l0.67 -0.62c0.06,-0.21 0.42,-0.7 0.57,-1.09 0.17,-0.44 0.21,-0.81 0.26,-1.31l0 -2.21c-0.04,-0.43 -0.35,-2.08 -0.34,-2.2l-0.22 -0.45c-0.24,-0.63 -0.45,-0.83 -0.64,-1.27 -0.28,-0.13 -0.07,0.01 -0.11,-0.16 -0.3,-0.16 -0.41,-0.4 -0.63,-0.61 -0.21,-0.21 -0.46,-0.32 -0.6,-0.63 -0.12,-0.04 -0.03,0.02 -0.14,-0.06 -0.1,-0.07 -0.04,-0.05 -0.07,-0.1 -0.34,-0.15 -0.55,-0.4 -0.84,-0.63 -0.27,-0.21 -0.47,-0.39 -0.73,-0.62 -0.29,-0.27 -1.23,-0.99 -1.29,-1.42 -0.35,-0.13 -0.83,-1.16 -0.93,-1.47 -0.23,-0.23 -0.99,-2.13 -0.98,-2.51 -0.27,-0.28 -0.47,-1.31 -0.55,-1.76 -0.13,-0.25 -0.25,-0.86 -0.23,-1.17 -0.27,-0.3 -0.54,-2.63 -0.6,-3.17 -0.05,-0.28 -0.12,-0.64 -0.06,-0.91l-0.31 -1.87c-0.07,-0.32 -0.17,-0.76 -0.12,-1.05l-0.1 -0.22c-0,-0.01 -0.04,-0.22 -0.05,-0.24 -0.03,-0.15 -0.04,-0.27 -0.07,-0.42 -0.06,-0.34 -0.13,-0.64 -0.18,-0.99 -0.1,-0.24 -0.46,-2.05 -0.45,-2.31 -0.19,-0.21 -0.48,-1.65 -0.54,-2.04 -0.13,-0.2 -0.25,-0.76 -0.25,-0.99l-1.32 -3.14c-0.11,-0.06 -0.7,-1.15 -0.84,-1.36l-0.9 -1.34c-0.1,-0.07 -0.05,-0.02 -0.14,-0.12 -0.07,-0.08 -0.03,-0.05 -0.1,-0.18 -0.19,-0.05 -0.31,-0.3 -0.5,-0.5 -0.14,-0.15 -0.4,-0.38 -0.46,-0.57 -0.17,-0.09 -0.12,-0.05 -0.28,-0.19 -0.17,-0.16 -0.1,-0.08 -0.2,-0.27l-1.13 -0.96c-0.26,-0.1 -0.15,-0.04 -0.22,-0.18l-0.34 -0.19c-0.63,-0.46 -2.37,-1.45 -2.4,-1.47 -0.5,-0.15 -1.07,-0.46 -1.6,-0.66 -0.56,-0.21 -1.12,-0.41 -1.59,-0.64l0.48 -1.77 -0.01 -0.24c0.04,-0.78 -0,-1.4 -0.21,-2.09 -0.19,-0.64 -0.48,-1.07 -0.66,-1.55 -0.15,-0.1 -0.32,-0.4 -0.44,-0.56 -0.16,-0.21 -0.35,-0.37 -0.52,-0.55 -0.23,-0.23 -1.05,-0.8 -1.11,-0.88 -0.61,-0.22 -0.97,-0.47 -1.71,-0.64 -0.8,-0.18 -1.31,-0.15 -2.13,-0.08z"/>
 </g>
</svg>
